<?xml version="1.0" encoding="UTF-8" standalone="no"?>
<!DOCTYPE svg PUBLIC "-//W3C//DTD SVG 1.1//EN" "http://www.w3.org/Graphics/SVG/1.1/DTD/svg11.dtd">
<svg xmlns="http://www.w3.org/2000/svg" version="1.1" viewBox="0 0 213 473">
<g stroke-width="2.00" fill="none" stroke-linecap="butt">
<path stroke="#a2c4b1" vector-effect="non-scaling-stroke" d="
  M 30.54 248.00
  Q 30.45 280.07 30.52 312.14
  C 30.55 327.41 51.52 327.46 51.73 311.99
  Q 51.86 302.09 51.71 257.25"
/>
<path stroke="#b2d6a3" vector-effect="non-scaling-stroke" d="
  M 51.71 257.25
  L 51.58 177.05
  Q 51.58 176.05 52.36 176.62
  Q 70.59 189.78 92.96 192.73
  A 0.58 0.57 3.4 0 1 93.47 193.30
  L 93.54 243.75"
/>
<path stroke="#a5c8ad" vector-effect="non-scaling-stroke" d="
  M 93.54 243.75
  Q 93.46 292.00 93.51 340.25
  C 93.52 350.79 108.34 354.04 113.11 345.14
  Q 114.49 342.55 114.50 337.12
  Q 114.53 289.80 114.46 242.50"
/>
<path stroke="#b2d6a3" vector-effect="non-scaling-stroke" d="
  M 114.46 242.50
  L 114.58 193.15
  A 0.62 0.50 86.9 0 1 115.01 192.55
  Q 136.96 189.39 154.77 176.28
  Q 155.11 176.03 155.14 176.43
  Q 155.50 181.87 155.40 187.36
  C 154.95 213.74 155.21 240.18 155.32 266.56
  Q 155.34 273.30 159.33 276.68
  C 164.33 280.90 172.03 279.48 175.19 273.65
  Q 176.50 271.21 176.50 266.59
  Q 176.50 210.92 176.50 155.22
  C 176.50 149.68 182.29 141.33 184.09 136.14
  C 199.17 92.50 177.65 43.98 133.49 27.54
  C 89.13 11.04 38.11 33.54 22.58 79.28
  C 13.93 104.74 17.11 127.86 29.49 151.36
  Q 30.52 153.32 30.51 155.50
  Q 30.46 201.76 30.54 248.00"
/>
<path stroke="#589f50" vector-effect="non-scaling-stroke" d="
  M 114.46 242.50
  L 114.05 245.19
  A 0.34 0.20 10.5 0 1 113.67 245.33
  Q 112.55 245.09 112.51 246.22
  A 0.67 0.67 -5.0 0 1 111.98 246.85
  C 109.37 247.41 106.05 245.36 103.40 244.71
  Q 102.95 244.60 102.54 244.27
  Q 100.40 242.53 97.14 242.84
  Q 93.81 243.16 93.95 239.56
  Q 93.96 239.24 93.93 239.56
  L 93.54 243.75"
/>
<path stroke="#549b54" vector-effect="non-scaling-stroke" d="
  M 51.71 257.25
  L 51.15 257.85
  Q 50.83 258.20 50.73 257.69
  C 50.47 256.36 49.46 256.71 48.63 256.36
  Q 42.01 253.61 34.91 252.38
  A 1.28 0.94 -5.0 0 1 34.09 251.88
  Q 33.61 251.08 32.48 251.05
  A 0.89 0.34 -1.8 0 1 31.74 250.79
  L 30.54 248.00"
/>
<path stroke="#a1c2b3" vector-effect="non-scaling-stroke" d="
  M 141.49 386.87
  C 140.03 408.47 166.84 419.93 181.45 404.80
  C 188.06 397.96 190.60 387.41 186.23 378.75
  Q 182.89 372.12 178.56 369.12
  Q 176.01 367.36 176.33 364.27
  Q 176.88 359.07 176.73 354.51
  C 176.20 338.48 176.50 322.36 176.50 306.32
  Q 176.50 302.47 175.45 300.38
  C 171.74 292.92 160.76 292.37 156.76 299.82
  C 154.20 304.59 155.17 315.63 155.27 321.14
  C 155.51 335.75 155.08 350.05 155.61 364.95
  Q 155.68 366.67 154.14 367.46
  C 147.00 371.08 142.04 378.88 141.49 386.87"
/>
<path stroke="#96b5c5" vector-effect="non-scaling-stroke" d="
  M 18.70 382.49
  C 14.60 397.96 27.34 414.55 43.77 412.26
  C 67.20 408.99 72.33 379.91 51.92 367.94
  A 0.81 0.81 -73.3 0 1 51.52 367.19
  C 51.84 361.74 52.89 350.31 50.50 345.50
  C 46.73 337.95 35.81 337.82 31.81 345.15
  C 29.22 349.89 30.50 361.82 30.48 367.46
  A 0.90 0.86 -16.0 0 1 30.04 368.21
  Q 21.08 373.52 18.70 382.49"
/>
<path stroke="#96b5c5" vector-effect="non-scaling-stroke" d="
  M 93.01 413.68
  C 78.06 422.49 75.92 441.87 89.75 452.92
  C 95.66 457.65 110.57 458.04 116.58 454.09
  C 132.43 443.68 130.37 423.03 114.93 413.48
  A 0.90 0.89 -74.3 0 1 114.51 412.72
  Q 114.49 395.99 114.50 379.26
  Q 114.50 375.11 113.95 373.30
  C 111.25 364.50 99.08 363.28 94.85 371.34
  Q 93.50 373.91 93.51 379.01
  Q 93.53 395.98 93.44 412.93
  A 0.87 0.86 75.0 0 1 93.01 413.68"
/>
<path stroke="#b2d6a3" vector-effect="non-scaling-stroke" d="
  M 167.78 107.67
  A 64.46 64.46 0.0 0 0 103.32 43.21
  A 64.46 64.46 0.0 0 0 38.86 107.67
  A 64.46 64.46 0.0 0 0 103.32 172.13
  A 64.46 64.46 0.0 0 0 167.78 107.67"
/>
<path stroke="#b2d6a3" vector-effect="non-scaling-stroke" d="
  M 135.80 107.69
  A 32.47 32.47 0.0 0 0 103.33 75.22
  A 32.47 32.47 0.0 0 0 70.86 107.69
  A 32.47 32.47 0.0 0 0 103.33 140.16
  A 32.47 32.47 0.0 0 0 135.80 107.69"
/>
<path stroke="#a1c2b3" vector-effect="non-scaling-stroke" d="
  M 176.26 388.38
  A 11.30 11.30 0.0 0 0 164.96 377.08
  A 11.30 11.30 0.0 0 0 153.66 388.38
  A 11.30 11.30 0.0 0 0 164.96 399.68
  A 11.30 11.30 0.0 0 0 176.26 388.38"
/>
<path stroke="#96b5c5" vector-effect="non-scaling-stroke" d="
  M 52.54 388.92
  A 11.29 11.29 0.0 0 0 41.25 377.63
  A 11.29 11.29 0.0 0 0 29.96 388.92
  A 11.29 11.29 0.0 0 0 41.25 400.21
  A 11.29 11.29 0.0 0 0 52.54 388.92"
/>
<path stroke="#96b5c5" vector-effect="non-scaling-stroke" d="
  M 115.28 434.38
  A 11.28 11.28 0.0 0 0 104.00 423.10
  A 11.28 11.28 0.0 0 0 92.72 434.38
  A 11.28 11.28 0.0 0 0 104.00 445.66
  A 11.28 11.28 0.0 0 0 115.28 434.38"
/>
</g>
<path fill="#ffffff" d="
  M 0.00 0.00
  L 213.00 0.00
  L 213.00 473.00
  L 0.00 473.00
  L 0.00 0.00
  Z
  M 30.54 248.00
  Q 30.45 280.07 30.52 312.14
  C 30.55 327.41 51.52 327.46 51.73 311.99
  Q 51.86 302.09 51.71 257.25
  L 51.58 177.05
  Q 51.58 176.05 52.36 176.62
  Q 70.59 189.78 92.96 192.73
  A 0.58 0.57 3.4 0 1 93.47 193.30
  L 93.54 243.75
  Q 93.46 292.00 93.51 340.25
  C 93.52 350.79 108.34 354.04 113.11 345.14
  Q 114.49 342.55 114.50 337.12
  Q 114.53 289.80 114.46 242.50
  L 114.58 193.15
  A 0.62 0.50 86.9 0 1 115.01 192.55
  Q 136.96 189.39 154.77 176.28
  Q 155.11 176.03 155.14 176.43
  Q 155.50 181.87 155.40 187.36
  C 154.95 213.74 155.21 240.18 155.32 266.56
  Q 155.34 273.30 159.33 276.68
  C 164.33 280.90 172.03 279.48 175.19 273.65
  Q 176.50 271.21 176.50 266.59
  Q 176.50 210.92 176.50 155.22
  C 176.50 149.68 182.29 141.33 184.09 136.14
  C 199.17 92.50 177.65 43.98 133.49 27.54
  C 89.13 11.04 38.11 33.54 22.58 79.28
  C 13.93 104.74 17.11 127.86 29.49 151.36
  Q 30.52 153.32 30.51 155.50
  Q 30.46 201.76 30.54 248.00
  Z
  M 141.49 386.87
  C 140.03 408.47 166.84 419.93 181.45 404.80
  C 188.06 397.96 190.60 387.41 186.23 378.75
  Q 182.89 372.12 178.56 369.12
  Q 176.01 367.36 176.33 364.27
  Q 176.88 359.07 176.73 354.51
  C 176.20 338.48 176.50 322.36 176.50 306.32
  Q 176.50 302.47 175.45 300.38
  C 171.74 292.92 160.76 292.37 156.76 299.82
  C 154.20 304.59 155.17 315.63 155.27 321.14
  C 155.51 335.75 155.08 350.05 155.61 364.95
  Q 155.68 366.67 154.14 367.46
  C 147.00 371.08 142.04 378.88 141.49 386.87
  Z
  M 18.70 382.49
  C 14.60 397.96 27.34 414.55 43.77 412.26
  C 67.20 408.99 72.33 379.91 51.92 367.94
  A 0.81 0.81 -73.3 0 1 51.52 367.19
  C 51.84 361.74 52.89 350.31 50.50 345.50
  C 46.73 337.95 35.81 337.82 31.81 345.15
  C 29.22 349.89 30.50 361.82 30.48 367.46
  A 0.90 0.86 -16.0 0 1 30.04 368.21
  Q 21.08 373.52 18.70 382.49
  Z
  M 93.01 413.68
  C 78.06 422.49 75.92 441.87 89.75 452.92
  C 95.66 457.65 110.57 458.04 116.58 454.09
  C 132.43 443.68 130.37 423.03 114.93 413.48
  A 0.90 0.89 -74.3 0 1 114.51 412.72
  Q 114.49 395.99 114.50 379.26
  Q 114.50 375.11 113.95 373.30
  C 111.25 364.50 99.08 363.28 94.85 371.34
  Q 93.50 373.91 93.51 379.01
  Q 93.53 395.98 93.44 412.93
  A 0.87 0.86 75.0 0 1 93.01 413.68
  Z"
/>
<path fill="#64ad46" d="
  M 114.46 242.50
  L 114.05 245.19
  A 0.34 0.20 10.5 0 1 113.67 245.33
  Q 112.55 245.09 112.51 246.22
  A 0.67 0.67 -5.0 0 1 111.98 246.85
  C 109.37 247.41 106.05 245.36 103.40 244.71
  Q 102.95 244.60 102.54 244.27
  Q 100.40 242.53 97.14 242.84
  Q 93.81 243.16 93.95 239.56
  Q 93.96 239.24 93.93 239.56
  L 93.54 243.75
  L 93.47 193.30
  A 0.58 0.57 3.4 0 0 92.96 192.73
  Q 70.59 189.78 52.36 176.62
  Q 51.58 176.05 51.58 177.05
  L 51.71 257.25
  L 51.15 257.85
  Q 50.83 258.20 50.73 257.69
  C 50.47 256.36 49.46 256.71 48.63 256.36
  Q 42.01 253.61 34.91 252.38
  A 1.28 0.94 -5.0 0 1 34.09 251.88
  Q 33.61 251.08 32.48 251.05
  A 0.89 0.34 -1.8 0 1 31.74 250.79
  L 30.54 248.00
  Q 30.46 201.76 30.51 155.50
  Q 30.52 153.32 29.49 151.36
  C 17.11 127.86 13.93 104.74 22.58 79.28
  C 38.11 33.54 89.13 11.04 133.49 27.54
  C 177.65 43.98 199.17 92.50 184.09 136.14
  C 182.29 141.33 176.50 149.68 176.50 155.22
  Q 176.50 210.92 176.50 266.59
  Q 176.50 271.21 175.19 273.65
  C 172.03 279.48 164.33 280.90 159.33 276.68
  Q 155.34 273.30 155.32 266.56
  C 155.21 240.18 154.95 213.74 155.40 187.36
  Q 155.50 181.87 155.14 176.43
  Q 155.11 176.03 154.77 176.28
  Q 136.96 189.39 115.01 192.55
  A 0.62 0.50 86.9 0 0 114.58 193.15
  L 114.46 242.50
  Z
  M 167.78 107.67
  A 64.46 64.46 0.0 0 0 103.32 43.21
  A 64.46 64.46 0.0 0 0 38.86 107.67
  A 64.46 64.46 0.0 0 0 103.32 172.13
  A 64.46 64.46 0.0 0 0 167.78 107.67
  Z"
/>
<path fill="#ffffff" d="
  M 167.78 107.67
  A 64.46 64.46 0.0 0 1 103.32 172.13
  A 64.46 64.46 0.0 0 1 38.86 107.67
  A 64.46 64.46 0.0 0 1 103.32 43.21
  A 64.46 64.46 0.0 0 1 167.78 107.67
  Z
  M 135.80 107.69
  A 32.47 32.47 0.0 0 0 103.33 75.22
  A 32.47 32.47 0.0 0 0 70.86 107.69
  A 32.47 32.47 0.0 0 0 103.33 140.16
  A 32.47 32.47 0.0 0 0 135.80 107.69
  Z"
/>
<circle fill="#64ad46" cx="103.33" cy="107.69" r="32.47"/>
<path fill="#4b905a" d="
  M 114.46 242.50
  Q 114.53 289.80 114.50 337.12
  Q 114.49 342.55 113.11 345.14
  C 108.34 354.04 93.52 350.79 93.51 340.25
  Q 93.46 292.00 93.54 243.75
  L 93.93 239.56
  Q 93.96 239.24 93.95 239.56
  Q 93.81 243.16 97.14 242.84
  Q 100.40 242.53 102.54 244.27
  Q 102.95 244.60 103.40 244.71
  C 106.05 245.36 109.37 247.41 111.98 246.85
  A 0.67 0.67 -5.0 0 0 112.51 246.22
  Q 112.55 245.09 113.67 245.33
  A 0.34 0.20 10.5 0 0 114.05 245.19
  L 114.46 242.50
  Z"
/>
<path fill="#448962" d="
  M 30.54 248.00
  L 31.74 250.79
  A 0.89 0.34 -1.8 0 0 32.48 251.05
  Q 33.61 251.08 34.09 251.88
  A 1.28 0.94 -5.0 0 0 34.91 252.38
  Q 42.01 253.61 48.63 256.36
  C 49.46 256.71 50.47 256.36 50.73 257.69
  Q 50.83 258.20 51.15 257.85
  L 51.71 257.25
  Q 51.86 302.09 51.73 311.99
  C 51.52 327.46 30.55 327.41 30.52 312.14
  Q 30.45 280.07 30.54 248.00
  Z"
/>
<path fill="#428467" d="
  M 181.45 404.80
  C 166.84 419.93 140.03 408.47 141.49 386.87
  C 142.04 378.88 147.00 371.08 154.14 367.46
  Q 155.68 366.67 155.61 364.95
  C 155.08 350.05 155.51 335.75 155.27 321.14
  C 155.17 315.63 154.20 304.59 156.76 299.82
  C 160.76 292.37 171.74 292.92 175.45 300.38
  Q 176.50 302.47 176.50 306.32
  C 176.50 322.36 176.20 338.48 176.73 354.51
  Q 176.88 359.07 176.33 364.27
  Q 176.01 367.36 178.56 369.12
  Q 182.89 372.12 186.23 378.75
  C 190.60 387.41 188.06 397.96 181.45 404.80
  Z
  M 176.26 388.38
  A 11.30 11.30 0.0 0 0 164.96 377.08
  A 11.30 11.30 0.0 0 0 153.66 388.38
  A 11.30 11.30 0.0 0 0 164.96 399.68
  A 11.30 11.30 0.0 0 0 176.26 388.38
  Z"
/>
<path fill="#2c6a8b" d="
  M 43.77 412.26
  C 27.34 414.55 14.60 397.96 18.70 382.49
  Q 21.08 373.52 30.04 368.21
  A 0.90 0.86 -16.0 0 0 30.48 367.46
  C 30.50 361.82 29.22 349.89 31.81 345.15
  C 35.81 337.82 46.73 337.95 50.50 345.50
  C 52.89 350.31 51.84 361.74 51.52 367.19
  A 0.81 0.81 -73.3 0 0 51.92 367.94
  C 72.33 379.91 67.20 408.99 43.77 412.26
  Z
  M 52.54 388.92
  A 11.29 11.29 0.0 0 0 41.25 377.63
  A 11.29 11.29 0.0 0 0 29.96 388.92
  A 11.29 11.29 0.0 0 0 41.25 400.21
  A 11.29 11.29 0.0 0 0 52.54 388.92
  Z"
/>
<path fill="#2c6a8b" d="
  M 93.44 412.93
  Q 93.53 395.98 93.51 379.01
  Q 93.50 373.91 94.85 371.34
  C 99.08 363.28 111.25 364.50 113.95 373.30
  Q 114.50 375.11 114.50 379.26
  Q 114.49 395.99 114.51 412.72
  A 0.90 0.89 -74.3 0 0 114.93 413.48
  C 130.37 423.03 132.43 443.68 116.58 454.09
  C 110.57 458.04 95.66 457.65 89.75 452.92
  C 75.92 441.87 78.06 422.49 93.01 413.68
  A 0.87 0.86 75.0 0 0 93.44 412.93
  Z
  M 115.28 434.38
  A 11.28 11.28 0.0 0 0 104.00 423.10
  A 11.28 11.28 0.0 0 0 92.72 434.38
  A 11.28 11.28 0.0 0 0 104.00 445.66
  A 11.28 11.28 0.0 0 0 115.28 434.38
  Z"
/>
<circle fill="#ffffff" cx="164.96" cy="388.38" r="11.30"/>
<circle fill="#ffffff" cx="41.25" cy="388.92" r="11.29"/>
<circle fill="#ffffff" cx="104.00" cy="434.38" r="11.28"/>
</svg>
